<?xml version="1.0" encoding="UTF-8"?>
<svg xmlns="http://www.w3.org/2000/svg" xmlns:xlink="http://www.w3.org/1999/xlink" width="25px" height="25px" viewBox="0 0 25 25" version="1.1">
<g id="surface1">
<path style="fill:none;stroke-width:1.19;stroke-linecap:butt;stroke-linejoin:miter;stroke:rgb(0%,62.745098%,89.019608%);stroke-opacity:1;stroke-miterlimit:22.9256;" d="M 14.5 0.779375 C 22.080781 0.779375 28.220625 6.919219 28.220625 14.5 C 28.220625 22.080781 22.080781 28.220625 14.5 28.220625 C 6.919219 28.220625 0.779375 22.080781 0.779375 14.5 C 0.779375 6.919219 6.919219 0.779375 14.5 0.779375 Z M 14.5 0.779375 " transform="matrix(0.862069,0,0,0.862069,0,0)"/>
<path style=" stroke:none;fill-rule:evenodd;fill:rgb(0%,62.745098%,89.019608%);fill-opacity:1;" d="M 5.328125 11.421875 L 17.042969 6.929688 C 18.050781 6.542969 18.65625 6.527344 18.34375 8.042969 L 16.378906 17.164062 C 16.214844 17.886719 15.863281 18.351562 15.113281 17.949219 L 12.042969 15.722656 L 10.050781 17.621094 L 10.050781 14.484375 L 16.007812 9.042969 C 16.257812 8.800781 16.042969 8.484375 15.671875 8.714844 L 8.179688 13.34375 L 5.441406 12.535156 C 4.757812 12.328125 4.378906 11.785156 5.328125 11.421875 Z M 5.328125 11.421875 "/>
</g>
</svg>
