<?xml version="1.0" encoding="UTF-8"?>
<!DOCTYPE svg PUBLIC "-//W3C//DTD SVG 1.1//EN" "http://www.w3.org/Graphics/SVG/1.1/DTD/svg11.dtd">
<!-- Creator: CorelDRAW 2017 -->
<svg xmlns="http://www.w3.org/2000/svg" xml:space="preserve" width="26px" height="30px" version="1.1" style="shape-rendering:geometricPrecision; text-rendering:geometricPrecision; image-rendering:optimizeQuality; fill-rule:evenodd; clip-rule:evenodd"
viewBox="0 0 26 29.55"
 xmlns:xlink="http://www.w3.org/1999/xlink">
 <defs>
  <style type="text/css">
   <![CDATA[
    .str2 {stroke:#714684;stroke-width:0.83;stroke-miterlimit:22.9256}
    .str0 {stroke:#714684;stroke-width:1.18;stroke-miterlimit:22.9256}
    .str1 {stroke:#714684;stroke-width:0.9;stroke-miterlimit:22.9256}
    .fil0 {fill:none}
    .fil1 {fill:#714684}
   ]]>
  </style>
 </defs>
 <g id="Слой_x0020_1">
  <metadata id="CorelCorpID_0Corel-Layer"/>
  <path class="fil0 str0" d="M6.88 27.87l0.07 -4.07c-0.02,-1.01 -0.45,-1.3 -1.54,-1.71 -2.87,-0.74 -4.57,-4.62 -4.6,-9.65 -0.04,-4.89 0.97,-8.64 4.69,-10.32 4.32,-2.03 11.48,-1.88 15.93,0.35 3.31,1.43 4.17,6.31 3.84,11.04 -0.29,4.28 -1.15,8.06 -5.89,9.26 -2.2,0.41 -4.48,0.58 -6.86,0.52 -0.66,-0.01 -1.04,0.16 -1.82,0.85l-3.82 3.73z"/>
  <path class="fil1 str1" d="M10.02 10.34c-1.03,0.85 -0.84,1.13 -0.56,2 0.7,1.74 2.14,2.83 3.66,3.6 0.84,0.35 1.42,0.04 1.76,-0.56 0.61,-0.97 1.72,-0.72 2.26,-0.28l2.19 1.55c0.82,0.83 0.45,1.46 0.22,1.84 -0.3,0.51 -0.63,0.92 -1.27,1.37 -0.8,0.45 -1.76,0.46 -2.5,0.05 -4.99,-2.16 -9.04,-6.69 -10.39,-10.87 -0.26,-0.8 -0.46,-1.44 0.01,-2.15 0.35,-0.56 0.97,-0.97 1.46,-1.18 0.95,-0.39 1.72,-0.05 2.72,1.39 0.95,1.36 1.63,2.42 0.44,3.24z"/>
  <path class="fil0 str2" d="M11.84 5.12c7.24,-1.38 8.64,5.11 7.76,7.74"/>
  <path class="fil0 str2" d="M12.45 6.83c4.2,-0.77 6.06,3.08 5.42,5.2"/>
  <path class="fil0 str2" d="M13.11 8.56c2.77,0.04 3.03,1.81 3.03,3.09"/>
 </g>
</svg>
