<?xml version="1.0" encoding="UTF-8"?>
<!DOCTYPE svg PUBLIC "-//W3C//DTD SVG 1.1//EN" "http://www.w3.org/Graphics/SVG/1.1/DTD/svg11.dtd">
<!-- Creator: CorelDRAW 2017 -->
<svg xmlns="http://www.w3.org/2000/svg" xml:space="preserve" width="25px" height="27px" version="1.1" style="shape-rendering:geometricPrecision; text-rendering:geometricPrecision; image-rendering:optimizeQuality; fill-rule:evenodd; clip-rule:evenodd"
viewBox="0 0 25 27.38"
 xmlns:xlink="http://www.w3.org/1999/xlink">
 <defs>
  <style type="text/css">
   <![CDATA[
    .str2 {stroke:#727271;stroke-width:0.83;stroke-miterlimit:22.9256}
    .str0 {stroke:#727271;stroke-width:1.19;stroke-miterlimit:22.9256}
    .str1 {stroke:#727271;stroke-width:0.91;stroke-miterlimit:22.9256}
    .fil0 {fill:none}
    .fil1 {fill:#727271}
   ]]>
  </style>
 </defs>
 <g id="Слой_x0020_1">
  <metadata id="CorelCorpID_0Corel-Layer"/>
  <g id="_1218671040">
   <path class="fil0 str0" d="M6.8 26.22l0.06 -3.75c-0.02,-0.93 -0.42,-1.2 -1.42,-1.58 -2.65,-0.69 -4.21,-4.26 -4.25,-8.9 -0.03,-4.51 0.9,-7.97 4.33,-9.51 3.98,-1.87 10.58,-1.74 14.69,0.32 3.05,1.32 3.84,5.82 3.54,10.18 -0.27,3.95 -1.07,7.43 -5.44,8.54 -2.02,0.37 -4.13,0.53 -6.31,0.47 -0.62,0 -0.96,0.15 -1.68,0.79l-3.52 3.44z"/>
   <path class="fil1 str1" d="M9.69 10.05c-0.95,0.79 -0.77,1.05 -0.52,1.85 0.65,1.6 1.97,2.61 3.38,3.32 0.77,0.32 1.31,0.04 1.62,-0.52 0.56,-0.89 1.59,-0.66 2.09,-0.26l2.01 1.43c0.76,0.77 0.42,1.35 0.2,1.71 -0.27,0.46 -0.58,0.84 -1.17,1.26 -0.74,0.41 -1.62,0.42 -2.31,0.04 -4.59,-1.99 -8.33,-6.17 -9.57,-10.02 -0.25,-0.74 -0.43,-1.33 0.01,-1.98 0.32,-0.53 0.89,-0.9 1.34,-1.09 0.88,-0.36 1.59,-0.05 2.51,1.28 0.88,1.25 1.51,2.23 0.41,2.98z"/>
   <path class="fil0 str2" d="M11.37 5.25c6.67,-1.28 7.97,4.7 7.15,7.13"/>
   <path class="fil0 str2" d="M11.93 6.82c3.87,-0.71 5.59,2.84 4.99,4.8"/>
   <path class="fil0 str2" d="M12.53 8.42c2.56,0.03 2.8,1.66 2.8,2.84"/>
  </g>
 </g>
</svg>
