<?xml version="1.0" encoding="UTF-8"?>
<svg xmlns="http://www.w3.org/2000/svg" xmlns:xlink="http://www.w3.org/1999/xlink" width="25px" height="25px" viewBox="0 0 25 25" version="1.1">
<g id="surface1">
<path style="fill:none;stroke-width:1.2;stroke-linecap:butt;stroke-linejoin:miter;stroke:rgb(0%,75.294118%,35.686275%);stroke-opacity:1;stroke-miterlimit:22.9256;" d="M 14.5 0.720469 C 22.107969 0.720469 28.279531 6.892031 28.279531 14.5 C 28.279531 22.107969 22.107969 28.279531 14.5 28.279531 C 11.99875 28.279531 9.701406 27.491094 7.680469 26.331094 L 1.200781 27.94875 L 2.741406 21.691094 C 1.459063 19.602188 0.720469 17.141719 0.720469 14.5 C 0.720469 6.892031 6.892031 0.720469 14.5 0.720469 Z M 14.5 0.720469 " transform="matrix(0.862069,0,0,0.862069,0,0)"/>
<path style="fill-rule:evenodd;fill:rgb(0%,75.294118%,35.686275%);fill-opacity:1;stroke-width:0.91;stroke-linecap:butt;stroke-linejoin:miter;stroke:rgb(0%,75.294118%,35.686275%);stroke-opacity:1;stroke-miterlimit:22.9256;" d="M 10.820625 7.970469 L 11.99875 10.761719 C 12.320469 11.459531 11.871875 11.858281 11.631719 12.189063 C 11.192188 12.628594 10.598594 13.031875 11.060781 13.747813 C 12.379375 15.832188 14.10125 17.250469 15.940938 17.939219 C 16.588906 18.251875 16.738438 18.111406 17.100938 17.680938 L 17.948281 16.702188 C 18.351563 16.008906 18.700469 16.140313 19.221563 16.330625 L 21.840625 17.599375 C 22.348125 17.912031 22.262031 18.288125 22.280156 18.868125 C 22.157813 21.201719 19.339375 21.958438 17.168906 21.369375 C 12.170938 20.100625 8.278594 15.669063 7.06875 12.121094 C 6.719844 10.639375 7.100469 9.139531 7.888906 8.22875 C 8.799688 7.168438 10.240625 6.869375 10.820625 7.970469 Z M 10.820625 7.970469 " transform="matrix(0.862069,0,0,0.862069,0,0)"/>
</g>
</svg>
